<svg width="175" height="49" viewBox="0 0 175 49" fill="none" xmlns="http://www.w3.org/2000/svg">
<path fill-rule="evenodd" clip-rule="evenodd" d="M47.5364 47V0.454529H37.8546V47H47.5364ZM17.6364 47.6818C20.7425 47.6818 23.4319 47.1136 25.7046 45.9773C27.9773 44.8409 29.7614 43.2613 31.0569 41.2386C32.3523 39.2159 33.0758 36.8712 33.2273 34.2045H24.091C23.9091 35.4318 23.5266 36.481 22.9432 37.3523C22.3599 38.2235 21.625 38.8863 20.7387 39.3409C19.8523 39.7954 18.8561 40.0227 17.75 40.0227C16.25 40.0227 14.9394 39.6136 13.8182 38.7954C12.697 37.9773 11.8296 36.7879 11.216 35.2273C10.6023 33.6666 10.2955 31.7727 10.2955 29.5454C10.2955 27.3485 10.6061 25.4773 11.2273 23.9318C11.8485 22.3863 12.716 21.2083 13.8296 20.3977C14.9432 19.5871 16.25 19.1818 17.75 19.1818C19.5228 19.1818 20.9584 19.7159 22.0569 20.7841C23.1553 21.8523 23.8334 23.2576 24.091 25H33.2273C33.091 22.303 32.3561 19.9545 31.0228 17.9545C29.6894 15.9545 27.8788 14.4015 25.591 13.2954C23.3031 12.1894 20.6364 11.6363 17.591 11.6363C14.0607 11.6363 11.0152 12.3977 8.45459 13.9204C5.89398 15.4432 3.9205 17.5568 2.53414 20.2613C1.14777 22.9659 0.45459 26.106 0.45459 29.6818C0.45459 33.2121 1.1402 36.3333 2.51141 39.0454C3.88262 41.7576 5.85232 43.875 8.4205 45.3977C10.9887 46.9204 14.0606 47.6818 17.6364 47.6818ZM78.5841 45.4204C76.016 46.928 72.9667 47.6818 69.4364 47.6818C65.9061 47.6818 62.8569 46.928 60.2887 45.4204C57.7205 43.9129 55.7394 41.8068 54.3455 39.1023C52.9516 36.3977 52.2546 33.2576 52.2546 29.6818C52.2546 26.0757 52.9516 22.9204 54.3455 20.2159C55.7394 17.5113 57.7205 15.4053 60.2887 13.8977C62.8569 12.3901 65.9061 11.6363 69.4364 11.6363C72.9667 11.6363 76.016 12.3901 78.5841 13.8977C81.1523 15.4053 83.1334 17.5113 84.5273 20.2159C85.9213 22.9204 86.6182 26.0757 86.6182 29.6818C86.6182 33.2576 85.9213 36.3977 84.5273 39.1023C83.1334 41.8068 81.1523 43.9129 78.5841 45.4204ZM69.4819 40.1818C67.8606 40.1818 66.5008 39.7235 65.4023 38.8068C64.3038 37.8901 63.4781 36.6363 62.925 35.0454C62.372 33.4545 62.0955 31.6439 62.0955 29.6136C62.0955 27.5833 62.372 25.7727 62.925 24.1818C63.4781 22.5909 64.3038 21.3333 65.4023 20.4091C66.5008 19.4848 67.8606 19.0227 69.4819 19.0227C71.0879 19.0227 72.4288 19.4848 73.5046 20.4091C74.5803 21.3333 75.3947 22.5909 75.9478 24.1818C76.5008 25.7727 76.7773 27.5833 76.7773 29.6136C76.7773 31.6439 76.5008 33.4545 75.9478 35.0454C75.3947 36.6363 74.5803 37.8901 73.5046 38.8068C72.4288 39.7235 71.0879 40.1818 69.4819 40.1818ZM115.177 45.9773C112.905 47.1136 110.215 47.6818 107.109 47.6818C103.533 47.6818 100.461 46.9204 97.8932 45.3977C95.325 43.875 93.3553 41.7576 91.9841 39.0454C90.6129 36.3333 89.9273 33.2121 89.9273 29.6818C89.9273 26.106 90.6205 22.9659 92.0069 20.2613C93.3932 17.5568 95.3667 15.4432 97.9273 13.9204C100.488 12.3977 103.533 11.6363 107.064 11.6363C110.109 11.6363 112.776 12.1894 115.064 13.2954C117.352 14.4015 119.162 15.9545 120.495 17.9545C121.829 19.9545 122.564 22.303 122.7 25H113.564C113.306 23.2576 112.628 21.8523 111.53 20.7841C110.431 19.7159 108.995 19.1818 107.223 19.1818C105.723 19.1818 104.416 19.5871 103.302 20.3977C102.189 21.2083 101.321 22.3863 100.7 23.9318C100.079 25.4773 99.7682 27.3485 99.7682 29.5454C99.7682 31.7727 100.075 33.6666 100.689 35.2273C101.302 36.7879 102.17 37.9773 103.291 38.7954C104.412 39.6136 105.723 40.0227 107.223 40.0227C108.329 40.0227 109.325 39.7954 110.211 39.3409C111.098 38.8863 111.833 38.2235 112.416 37.3523C112.999 36.481 113.382 35.4318 113.564 34.2045H122.7C122.549 36.8712 121.825 39.2159 120.53 41.2386C119.234 43.2613 117.45 44.8409 115.177 45.9773ZM137.009 0.454529H127.327V47H137.009L137.009 35.917L139.632 32.922L149.145 47H160.486L146.88 27.213L159.827 12.0909H148.714L137.532 25.3409L137.009 25.341L137.009 0.454529ZM171.318 46.8523C170.5 47.3447 169.599 47.5909 168.614 47.5909C167.114 47.5909 165.83 47.0568 164.761 45.9886C163.693 44.9204 163.159 43.6363 163.159 42.1363C163.159 40.6515 163.693 39.3788 164.761 38.3182C165.83 37.2576 167.114 36.7273 168.614 36.7273C170.068 36.7273 171.341 37.2576 172.432 38.3182C173.523 39.3788 174.068 40.6515 174.068 42.1363C174.068 43.1363 173.814 44.0492 173.307 44.875C172.799 45.7007 172.136 46.3598 171.318 46.8523Z" fill="black"/>
</svg>
