<svg width="24" height="24" viewBox="0 0 24 24" fill="none" xmlns="http://www.w3.org/2000/svg">
<path d="M6 21H18M16 18V21H8V18C8 17.0685 8.21687 16.1499 8.63344 15.3167C9.05 14.4836 9.65482 13.7589 10.4 13.2L12 12L13.6 13.2C14.3452 13.7589 14.95 14.4836 15.3666 15.3167C15.7831 16.1499 16 17.0685 16 18Z" stroke="black" stroke-width="2" stroke-linecap="round" stroke-linejoin="round"/>
<path d="M6 3H18M13.6 10.8L12 12L10.4 10.8C9.65482 10.2411 9.05 9.51641 8.63344 8.68328C8.21687 7.85015 8 6.93147 8 6V3H16V6C16 6.93147 15.7831 7.85015 15.3666 8.68328C14.95 9.51641 14.3452 10.2411 13.6 10.8Z" stroke="black" stroke-width="2" stroke-linecap="round" stroke-linejoin="round"/>
</svg>
