<svg width="24" height="24" viewBox="0 0 24 24" fill="none" xmlns="http://www.w3.org/2000/svg">
<path d="M15.93 18.6399C15.9773 18.754 16.0011 18.8764 16 18.9999C16 20.0999 14.21 20.9999 12 20.9999C9.79003 20.9999 8.00003 20.0999 8.00003 18.9999C7.99897 18.8764 8.02278 18.754 8.07003 18.6399" stroke="white" stroke-width="2" stroke-linecap="round" stroke-linejoin="round"/>
<path d="M6 4.22L18 14.22M17 8C17 6.67392 16.4732 5.40215 15.5355 4.46447C14.5979 3.52678 13.3261 3 12 3C10.6739 3 9.40215 3.52678 8.46447 4.46447C7.52678 5.40215 7 6.67392 7 8C7 12 12 17 12 17C12 17 17 12 17 8Z" stroke="white" stroke-width="2" stroke-linecap="round" stroke-linejoin="round"/>
</svg>
