<svg width="24" height="24" viewBox="0 0 24 24" fill="none" xmlns="http://www.w3.org/2000/svg">
<path d="M12.0929 4H12.4656C12.6378 4.01258 12.8014 4.07913 12.9325 4.18993C13.0637 4.30074 13.1556 4.45002 13.1949 4.616C13.2348 4.78159 13.2202 4.95544 13.1531 5.11226C13.0861 5.26908 12.9701 5.40071 12.8221 5.488C12.1004 5.91061 11.5036 6.51274 11.0912 7.23429C10.6789 7.95584 10.4655 8.77156 10.4723 9.6C10.4737 10.5325 10.7501 11.4444 11.2677 12.2243C11.7854 13.0042 12.522 13.6183 13.3874 13.9916C14.2529 14.365 15.2097 14.4814 16.1411 14.3266C17.0724 14.1718 17.9379 13.7525 18.6319 13.12C18.7607 12.9992 18.9263 12.9236 19.103 12.9048C19.2797 12.886 19.4577 12.9251 19.6097 13.016C19.7617 13.107 19.8792 13.2447 19.944 13.4081C20.0089 13.5714 20.0176 13.7513 19.9688 13.92C19.6043 15.3755 18.8329 16.7007 17.7425 17.7442C16.6521 18.7878 15.2866 19.5078 13.8017 19.8222C12.3168 20.1365 10.7723 20.0326 9.34442 19.5222C7.9165 19.0118 6.6626 18.1154 5.72572 16.9354C4.78884 15.7554 4.2067 14.3391 4.04568 12.8482C3.88466 11.3573 4.15125 9.85175 4.81504 8.50321C5.47883 7.15466 6.5131 6.01744 7.79991 5.22122C9.08671 4.425 10.5743 4.00184 12.0929 4Z" fill="white"/>
</svg>
