<svg width="24" height="24" viewBox="0 0 24 24" fill="none" xmlns="http://www.w3.org/2000/svg">
<path d="M16 12C16 12.7911 15.7654 13.5645 15.3259 14.2223C14.8864 14.8801 14.2616 15.3928 13.5307 15.6955C12.7998 15.9983 11.9956 16.0775 11.2196 15.9231C10.4437 15.7688 9.73098 15.3878 9.17157 14.8284C8.61216 14.269 8.2312 13.5563 8.07686 12.7804C7.92252 12.0044 8.00173 11.2002 8.30448 10.4693C8.60723 9.73836 9.11992 9.11365 9.77772 8.67412C10.4355 8.2346 11.2089 8 12 8C13.0609 8 14.0783 8.42143 14.8284 9.17157C15.5786 9.92172 16 10.9391 16 12ZM13 21V20C13 19.7348 12.8946 19.4804 12.7071 19.2929C12.5196 19.1054 12.2652 19 12 19C11.7348 19 11.4804 19.1054 11.2929 19.2929C11.1054 19.4804 11 19.7348 11 20V21C11 21.2652 11.1054 21.5196 11.2929 21.7071C11.4804 21.8946 11.7348 22 12 22C12.2652 22 12.5196 21.8946 12.7071 21.7071C12.8946 21.5196 13 21.2652 13 21ZM19.07 19.07C19.2563 18.8826 19.3608 18.6292 19.3608 18.365C19.3608 18.1008 19.2563 17.8474 19.07 17.66L18.36 17C18.17 16.8943 17.9508 16.8534 17.7355 16.8835C17.5202 16.9136 17.3205 17.0131 17.1668 17.1668C17.0131 17.3205 16.9136 17.5202 16.8835 17.7355C16.8534 17.9508 16.8943 18.17 17 18.36L17.71 19.07C17.8974 19.2563 18.1508 19.3608 18.415 19.3608C18.6792 19.3608 18.9326 19.2563 19.12 19.07H19.07ZM6.34 19.07L7.05 18.36C7.17319 18.1655 7.22547 17.9344 7.19803 17.7058C7.17059 17.4772 7.06511 17.2651 6.89939 17.1052C6.73367 16.9454 6.51787 16.8476 6.28842 16.8285C6.05898 16.8093 5.82995 16.8699 5.64 17L4.93 17.71C4.74375 17.8974 4.63921 18.1508 4.63921 18.415C4.63921 18.6792 4.74375 18.9326 4.93 19.12C5.11736 19.3063 5.37081 19.4108 5.635 19.4108C5.89919 19.4108 6.15264 19.3063 6.34 19.12V19.07ZM22 12C22 11.7348 21.8946 11.4804 21.7071 11.2929C21.5196 11.1054 21.2652 11 21 11H20C19.7348 11 19.4804 11.1054 19.2929 11.2929C19.1054 11.4804 19 11.7348 19 12C19 12.2652 19.1054 12.5196 19.2929 12.7071C19.4804 12.8946 19.7348 13 20 13H21C21.2652 13 21.5196 12.8946 21.7071 12.7071C21.8946 12.5196 22 12.2652 22 12ZM5 12C5 11.7348 4.89464 11.4804 4.70711 11.2929C4.51957 11.1054 4.26522 11 4 11H3C2.73478 11 2.48043 11.1054 2.29289 11.2929C2.10536 11.4804 2 11.7348 2 12C2 12.2652 2.10536 12.5196 2.29289 12.7071C2.48043 12.8946 2.73478 13 3 13H4C4.26522 13 4.51957 12.8946 4.70711 12.7071C4.89464 12.5196 5 12.2652 5 12ZM18.36 7.05L19.07 6.34C19.1747 6.25035 19.2597 6.14003 19.3197 6.01597C19.3797 5.89191 19.4135 5.75677 19.4188 5.61905C19.4241 5.48133 19.4009 5.344 19.3506 5.21568C19.3004 5.08735 19.2241 4.9708 19.1266 4.87335C19.0292 4.77589 18.9126 4.69964 18.7843 4.64936C18.656 4.59909 18.5187 4.57588 18.3809 4.5812C18.2432 4.58652 18.1081 4.62025 17.984 4.68027C17.86 4.7403 17.7496 4.82532 17.66 4.93L17 5.64C16.8137 5.82736 16.7092 6.08081 16.7092 6.345C16.7092 6.60919 16.8137 6.86264 17 7.05C17.0934 7.14268 17.2043 7.21601 17.3261 7.26577C17.4479 7.31554 17.5784 7.34076 17.71 7.34C17.9549 7.32632 18.1862 7.22311 18.36 7.05ZM7.05 7.05C7.23625 6.86264 7.34079 6.60919 7.34079 6.345C7.34079 6.08081 7.23625 5.82736 7.05 5.64L6.34 4.93C6.1487 4.76617 5.90262 4.68057 5.65095 4.69029C5.39927 4.70001 5.16053 4.80434 4.98244 4.98244C4.80434 5.16053 4.70001 5.39927 4.69029 5.65095C4.68057 5.90262 4.76617 6.1487 4.93 6.34L5.64 7.05C5.82626 7.23474 6.07766 7.3389 6.34 7.34C6.47161 7.34076 6.60207 7.31554 6.72391 7.26577C6.84574 7.21601 6.95656 7.14268 7.05 7.05ZM13.05 4.05V3C13.05 2.73478 12.9446 2.48043 12.7571 2.29289C12.5696 2.10536 12.3152 2 12.05 2C11.7848 2 11.5304 2.10536 11.3429 2.29289C11.1554 2.48043 11.05 2.73478 11.05 3V4C11.05 4.26522 11.1554 4.51957 11.3429 4.70711C11.5304 4.89464 11.7848 5 12.05 5C12.3152 5 12.5696 4.89464 12.7571 4.70711C12.9446 4.51957 13.05 4.26522 13.05 4V4.05Z" fill="white"/>
</svg>
