<svg width="24" height="24" viewBox="0 0 24 24" fill="none" xmlns="http://www.w3.org/2000/svg">
<path d="M21 19H3C2.73478 19 2.48043 18.8946 2.29289 18.7071C2.10536 18.5196 2 18.2652 2 18C2 17.7348 2.10536 17.4804 2.29289 17.2929C2.48043 17.1054 2.73478 17 3 17H21C21.2652 17 21.5196 17.1054 21.7071 17.2929C21.8946 17.4804 22 17.7348 22 18C22 18.2652 21.8946 18.5196 21.7071 18.7071C21.5196 18.8946 21.2652 19 21 19Z" fill="white"/>
<path d="M21 15H20C19.7348 15 19.4804 14.8946 19.2929 14.7071C19.1054 14.5196 19 14.2652 19 14C19 13.7348 19.1054 13.4804 19.2929 13.2929C19.4804 13.1054 19.7348 13 20 13H21C21.2652 13 21.5196 13.1054 21.7071 13.2929C21.8946 13.4804 22 13.7348 22 14C22 14.2652 21.8946 14.5196 21.7071 14.7071C21.5196 14.8946 21.2652 15 21 15ZM4 15H3C2.73478 15 2.48043 14.8946 2.29289 14.7071C2.10536 14.5196 2 14.2652 2 14C2 13.7348 2.10536 13.4804 2.29289 13.2929C2.48043 13.1054 2.73478 13 3 13H4C4.26522 13 4.51957 13.1054 4.70711 13.2929C4.89464 13.4804 5 13.7348 5 14C5 14.2652 4.89464 14.5196 4.70711 14.7071C4.51957 14.8946 4.26522 15 4 15ZM17.66 9.34C17.4116 9.32875 17.1763 9.22536 17 9.05C16.8137 8.86264 16.7092 8.60919 16.7092 8.345C16.7092 8.08081 16.8137 7.82736 17 7.64L17.71 6.93C17.7996 6.82532 17.91 6.7403 18.034 6.68027C18.1581 6.62025 18.2932 6.58652 18.4309 6.5812C18.5687 6.57588 18.706 6.59909 18.8343 6.64936C18.9626 6.69964 19.0792 6.77589 19.1767 6.87335C19.2741 6.9708 19.3504 7.08735 19.4006 7.21568C19.4509 7.344 19.4741 7.48133 19.4688 7.61905C19.4635 7.75677 19.4297 7.89191 19.3697 8.01597C19.3097 8.14003 19.2247 8.25035 19.12 8.34L18.41 9.05C18.3119 9.14761 18.1945 9.22379 18.0654 9.27371C17.9363 9.32363 17.7983 9.3462 17.66 9.34ZM6.34 9.34C6.07766 9.3389 5.82626 9.23474 5.64 9.05L4.93 8.34C4.76617 8.1487 4.68057 7.90262 4.69029 7.65095C4.70001 7.39927 4.80434 7.16053 4.98244 6.98244C5.16053 6.80434 5.39927 6.70001 5.65095 6.69029C5.90262 6.68057 6.1487 6.76617 6.34 6.93L7.05 7.64C7.23625 7.82736 7.34079 8.08081 7.34079 8.345C7.34079 8.60919 7.23625 8.86264 7.05 9.05C6.95656 9.14268 6.84574 9.21601 6.72391 9.26577C6.60207 9.31554 6.47161 9.34076 6.34 9.34ZM12 7C11.7348 7 11.4804 6.89464 11.2929 6.70711C11.1054 6.51957 11 6.26522 11 6V5C11 4.73478 11.1054 4.48043 11.2929 4.29289C11.4804 4.10536 11.7348 4 12 4C12.2652 4 12.5196 4.10536 12.7071 4.29289C12.8946 4.48043 13 4.73478 13 5V6C13 6.26522 12.8946 6.51957 12.7071 6.70711C12.5196 6.89464 12.2652 7 12 7Z" fill="white"/>
<path d="M16 13.33C16.0059 14.3126 15.65 15.263 15 16H9C8.35002 15.263 7.99406 14.3126 8 13.33C8 12.2691 8.42142 11.2517 9.17157 10.5015C9.92171 9.75138 10.9391 9.32996 12 9.32996C13.0609 9.32996 14.0783 9.75138 14.8284 10.5015C15.5786 11.2517 16 12.2691 16 13.33Z" fill="white"/>
</svg>
