<svg width="24" height="24" viewBox="0 0 24 24" fill="none" xmlns="http://www.w3.org/2000/svg">
<path d="M18 11C18.0033 12.4787 17.4541 13.9053 16.46 15H7.54C6.5459 13.9053 5.99666 12.4787 6 11C6 9.4087 6.63214 7.88258 7.75736 6.75736C8.88258 5.63214 10.4087 5 12 5C13.5913 5 15.1174 5.63214 16.2426 6.75736C17.3679 7.88258 18 9.4087 18 11Z" fill="white"/>
<path d="M21 18H3C2.73478 18 2.48043 17.8946 2.29289 17.7071C2.10536 17.5196 2 17.2652 2 17C2 16.7348 2.10536 16.4804 2.29289 16.2929C2.48043 16.1054 2.73478 16 3 16H21C21.2652 16 21.5196 16.1054 21.7071 16.2929C21.8946 16.4804 22 16.7348 22 17C22 17.2652 21.8946 17.5196 21.7071 17.7071C21.5196 17.8946 21.2652 18 21 18Z" fill="white"/>
</svg>
